<svg width="24" height="24" viewBox="0 0 24 24" fill="none" xmlns="http://www.w3.org/2000/svg">
  <!-- Background circle -->
  <circle cx="12" cy="12" r="11" fill="#0265DC" stroke="#ffffff" stroke-width="1"/>
  
  <!-- Book/Tutorial icon -->
  <g transform="translate(6, 5)">
    <!-- Book spine -->
    <rect x="0" y="0" width="2" height="14" fill="#ffffff" rx="1"/>
    
    <!-- Book pages -->
    <rect x="2" y="1" width="10" height="12" fill="#ffffff" rx="1"/>
    
    <!-- Page lines representing content -->
    <line x1="4" y1="4" x2="10" y2="4" stroke="#0265DC" stroke-width="0.5"/>
    <line x1="4" y1="6" x2="9" y2="6" stroke="#0265DC" stroke-width="0.5"/>
    <line x1="4" y1="8" x2="10" y2="8" stroke="#0265DC" stroke-width="0.5"/>
    <line x1="4" y1="10" x2="8" y2="10" stroke="#0265DC" stroke-width="0.5"/>
    
    <!-- Tutorial/learning symbol (lightbulb) -->
    <g transform="translate(7, 3)">
      <circle cx="2" cy="2" r="1.5" fill="#FFD700" stroke="#0265DC" stroke-width="0.3"/>
      <rect x="1.5" y="3.2" width="1" height="0.8" fill="#FFD700"/>
      <line x1="1.8" y1="4" x2="2.2" y2="4" stroke="#0265DC" stroke-width="0.2"/>
    </g>
  </g>
  
  <!-- Progress indicator dots -->
  <g transform="translate(8, 19)">
    <circle cx="0" cy="0" r="1" fill="#ffffff"/>
    <circle cx="3" cy="0" r="1" fill="#ffffff" opacity="0.7"/>
    <circle cx="6" cy="0" r="1" fill="#ffffff" opacity="0.4"/>
    <circle cx="9" cy="0" r="1" fill="#ffffff" opacity="0.2"/>
  </g>
</svg>
